<svg width="512" height="512" viewBox="0 0 512 512" xmlns="http://www.w3.org/2000/svg">
  <defs>
    <color id="gold" value="#eebb56"/>
    <color id="gold-shadow" value="#cda03e"/>
    <color id="wood" value="#bba183"/>
    <color id="wood-dark" value="#a4896b"/>
    <color id="keyhole" value="#5e4b35"/>
  </defs>

  <g id="lid">
    <rect x="40" y="40" width="432" height="150" fill="#eebb56" rx="5" />
    
    <rect x="70" y="70" width="372" height="90" fill="#bba183" />
    
    <rect x="70" y="100" width="372" height="30" fill="#a4896b" />
    
    <rect x="40" y="180" width="432" height="10" fill="#cda03e" />
  </g>

  <g id="base">
    <rect x="40" y="190" width="432" height="282" fill="#eebb56" rx="5" />
    
    <path d="M 80 230 L 432 230 L 432 432 L 80 432 Z" fill="#bba183" />
    
    <path d="M 80 230 Q 80 260 110 260 L 402 260 Q 432 260 432 230 L 432 432 Q 432 402 402 402 L 110 402 Q 80 402 80 432 Z" fill="#bba183" />

    <rect x="80" y="290" width="352" height="30" fill="#a4896b" />
    <rect x="80" y="350" width="352" height="30" fill="#a4896b" />

    <circle cx="60" cy="210" r="10" fill="#cda03e" />
    <circle cx="452" cy="210" r="10" fill="#cda03e" />
    <circle cx="60" cy="452" r="10" fill="#cda03e" />
    <circle cx="452" cy="452" r="10" fill="#cda03e" />
  </g>

  <g id="lock" transform="translate(0, 20)">
    <path d="M 220 230 L 292 230 L 285 310 L 227 310 Z" fill="#f4d06f" stroke="#cda03e" stroke-width="2" />
    
    <circle cx="256" cy="260" r="12" fill="#5e4b35" />
    <path d="M 256 260 L 268 300 L 244 300 Z" fill="#5e4b35" />
  </g>
</svg>