<svg width="512" height="256" viewBox="0 0 512 256" xmlns="http://www.w3.org/2000/svg">
  <defs>
    <mask id="cutouts">
      <rect x="0" y="0" width="512" height="256" fill="white" />
      <rect x="90" y="70" width="50" height="40" fill="black" />
      <rect x="120" y="165" width="170" height="12" rx="4" fill="black" />
    </mask>
  </defs>

  <g fill="#1d1d1d" mask="url(#cutouts)">
    <rect x="60" y="50" width="100" height="130" />
    <rect x="20" y="50" width="150" height="15" />
    
    <rect x="160" y="90" width="270" height="90" />
    
    <path d="M 210 90 L 210 60 Q 235 40 260 60 L 260 90 Z" />
    <path d="M 300 90 L 300 70 Q 320 55 340 70 L 340 90 Z" />
    
    <path d="M 390 90 L 390 40 L 380 20 L 420 20 L 410 40 L 410 90 Z" />
    
    <rect x="430" y="110" width="10" height="40" rx="2" />

    <circle cx="140" cy="180" r="38" />
    <circle cx="225" cy="180" r="38" />
    <circle cx="310" cy="180" r="38" />
    
    <circle cx="390" cy="195" r="22" />
    <circle cx="440" cy="195" r="22" />

    <path d="M 450 180 L 490 217 L 450 217 Z" />

    <rect x="40" y="160" width="20" height="10" />
    <rect x="35" y="155" width="5" height="20" />
  </g>
</svg>